<svg version="1.2" xmlns="http://www.w3.org/2000/svg" viewBox="0 0 37 36" width="37" height="36">
	<title>Search (and thou shall find)</title>
	<style>
		.s0 { fill: #f1fbff } 
	</style>
	<path id="Search (and thou shall find)" fill-rule="evenodd" class="s0" d="m14.4 5.2c4.6 0 8.4 3.8 8.4 8.5 0 1.8-0.5 3.5-1.6 4.9l-0.8 1.2-1.1 0.8c-1.5 1-3.2 1.6-4.9 1.6-4.7 0-8.5-3.8-8.5-8.5 0-4.7 3.8-8.5 8.5-8.5m0-4.2c-7 0-12.7 5.7-12.7 12.7 0 7 5.7 12.7 12.7 12.7 2.7 0 5.2-0.9 7.3-2.3l10.1 10.2c0.5 0.4 1 0.6 1.5 0.6 0.6 0 1.1-0.2 1.5-0.6 0.9-0.9 0.9-2.2 0-3l-10.1-10.2c1.4-2.1 2.3-4.6 2.3-7.4 0-7-5.6-12.7-12.6-12.7z"/>
</svg>