<svg version="1.2" xmlns="http://www.w3.org/2000/svg" viewBox="0 0 32 36" width="32" height="36">
	<title>Simon says</title>
	<style>
		.s0 { fill: #ffffff } 
	</style>
	<path id="Simon says" fill-rule="evenodd" class="s0" d="m16.2 5.3c5.8 0 10.6 4.8 10.6 10.6 0 5.9-4.8 10.6-10.6 10.6h-0.1q-0.2 0-0.3 0h-0.8l-0.6 0.2-7.1 2.1 0.8-3.4 0.5-1.9-1.1-1.5c-1.2-1.8-1.9-3.9-1.9-6.1 0-5.8 4.8-10.6 10.6-10.6m0-4.2c-8.2 0-14.8 6.6-14.8 14.8 0 3.2 1 6.1 2.6 8.5l-2.7 10.6 14.3-4.3q0.3 0.1 0.6 0.1c8.2 0 14.8-6.7 14.8-14.9 0-8.2-6.6-14.8-14.8-14.8z"/>
</svg>