<svg version="1.2" xmlns="http://www.w3.org/2000/svg" viewBox="0 0 37 36" width="37" height="36">
	<title>Write</title>
	<style>
		.s0 { fill: #ffffff } 
	</style>
	<path id="Write" fill-rule="evenodd" class="s0" d="m26.8 6.1l-13.1 12.6v3.5h3.5l12.6-13.1zm0.1-5.1c0.5 0 1 0.2 1.5 0.6l5.9 6c0.9 0.9 0.9 2.2 0 3l-15.2 15.8h-9.6v-9.5l15.9-15.3c0.4-0.4 0.9-0.6 1.5-0.6zm3.8 23.3c0-1.1 1-2.1 2.1-2.1 1.2 0 2.2 1 2.2 2.1v8.5c0 1.2-1 2.1-2.2 2.1h-29.6c-1.2 0-2.2-0.9-2.2-2.1v-29.7c0-1.1 1-2.1 2.2-2.1h8.4c1.2 0 2.2 1 2.2 2.1 0 1.2-1 2.2-2.2 2.2h-5.3c-0.5 0-1 0.4-1 1v23.3c0 0.6 0.5 1.1 1 1.1h23.4c0.5 0 1-0.5 1-1.1z"/>
</svg>